<svg width="217" height="34" viewBox="0 0 217 34" fill="none" xmlns="http://www.w3.org/2000/svg">
<path d="M13.8 18.36C15.6933 18.7067 17.2133 19.3867 18.36 20.4C19.5333 21.4133 20.12 22.96 20.12 25.04C20.12 27.92 19.1067 29.9733 17.08 31.2C15.0533 32.4 12.2133 33 8.55999 33H0.23999V5.36H7.47999C15.1067 5.36 18.92 7.70666 18.92 12.4C18.92 14.0267 18.4267 15.36 17.44 16.4C16.4533 17.4133 15.24 18.0667 13.8 18.36ZM5.51999 9.24V16.72H8.75999C10.2267 16.72 11.3867 16.4 12.24 15.76C13.0933 15.0933 13.52 14.12 13.52 12.84C13.52 11.5067 13.0667 10.5733 12.16 10.04C11.28 9.50666 9.89332 9.24 7.99999 9.24H5.51999ZM8.59999 29.04C10.5467 29.04 12.0267 28.7467 13.04 28.16C14.08 27.5733 14.6 26.4667 14.6 24.84C14.6 23.2667 14.1067 22.1333 13.12 21.44C12.16 20.7467 10.84 20.4 9.15999 20.4H5.51999V29.04H8.59999Z" fill="#F5F5F5"/>
<path d="M35.0512 11.28C35.8246 11.28 36.5312 11.3733 37.1712 11.56L36.2912 16.52C35.6512 16.36 35.0246 16.28 34.4112 16.28C33.1579 16.28 32.1712 16.7333 31.4512 17.64C30.7312 18.52 30.1579 19.88 29.7312 21.72V33H24.6112V11.84H29.0512L29.5312 16C30.0379 14.48 30.7712 13.32 31.7312 12.52C32.6912 11.6933 33.7979 11.28 35.0512 11.28Z" fill="#F5F5F5"/>
<path d="M57.2734 33H52.8334L52.5534 30.04C51.7801 31.24 50.8601 32.1333 49.7934 32.72C48.7534 33.3067 47.5134 33.6 46.0734 33.6C44.1801 33.6 42.7134 33.0267 41.6734 31.88C40.6601 30.7067 40.1534 29.0933 40.1534 27.04V11.84H45.2734V26.4C45.2734 27.6 45.4734 28.4533 45.8734 28.96C46.3001 29.4667 46.9668 29.72 47.8734 29.72C49.5001 29.72 50.9268 28.72 52.1534 26.72V11.84H57.2734V33Z" fill="#F5F5F5"/>
<path d="M74.7194 11.24C76.6127 11.24 78.0794 11.8133 79.1194 12.96C80.186 14.08 80.7194 15.6533 80.7194 17.68V33H75.5994V18.48C75.5994 17.2267 75.3727 16.3467 74.9194 15.84C74.4927 15.3333 73.8527 15.08 72.9994 15.08C72.1194 15.08 71.3194 15.36 70.5994 15.92C69.906 16.4533 69.226 17.24 68.5594 18.28V33H63.4394V11.84H67.8794L68.2794 14.6C70.0127 12.36 72.1594 11.24 74.7194 11.24Z" fill="#F5F5F5"/>
<path d="M95.3216 11.24C98.4416 11.24 100.868 12.24 102.602 14.24C104.362 16.2133 105.242 18.9333 105.242 22.4C105.242 24.6133 104.842 26.5733 104.042 28.28C103.242 29.96 102.095 31.2667 100.602 32.2C99.1082 33.1333 97.3349 33.6 95.2816 33.6C92.1616 33.6 89.7216 32.6133 87.9616 30.64C86.2016 28.64 85.3216 25.8933 85.3216 22.4C85.3216 20.1867 85.7215 18.24 86.5216 16.56C87.3216 14.88 88.4682 13.5733 89.9616 12.64C91.4816 11.7067 93.2682 11.24 95.3216 11.24ZM95.3216 15.12C92.2549 15.12 90.7215 17.5467 90.7215 22.4C90.7215 24.9067 91.0949 26.76 91.8416 27.96C92.6149 29.1333 93.7616 29.72 95.2816 29.72C96.8016 29.72 97.9349 29.12 98.6815 27.92C99.4549 26.72 99.8416 24.88 99.8416 22.4C99.8416 19.92 99.4549 18.0933 98.6815 16.92C97.9349 15.72 96.8149 15.12 95.3216 15.12Z" fill="#F5F5F5"/>
<path d="M130.761 4.76C132.441 4.76 133.908 5 135.161 5.48C136.414 5.96 137.641 6.69333 138.841 7.68L136.161 10.8C134.534 9.49333 132.828 8.84 131.041 8.84C128.988 8.84 127.334 9.66666 126.081 11.32C124.854 12.9733 124.241 15.5733 124.241 19.12C124.241 22.5867 124.854 25.16 126.081 26.84C127.308 28.52 128.961 29.36 131.041 29.36C132.134 29.36 133.108 29.1733 133.961 28.8C134.814 28.4 135.721 27.84 136.681 27.12L139.161 30.24C138.228 31.2 137.041 32 135.601 32.64C134.188 33.28 132.601 33.6 130.841 33.6C128.441 33.6 126.321 33.04 124.481 31.92C122.641 30.8 121.214 29.16 120.201 27C119.188 24.8133 118.681 22.1867 118.681 19.12C118.681 16.1067 119.201 13.52 120.241 11.36C121.308 9.2 122.748 7.56 124.561 6.44C126.401 5.32 128.468 4.76 130.761 4.76Z" fill="#F5F5F5"/>
<path d="M159.354 21.92C159.354 22.1867 159.314 22.88 159.234 24H145.954C146.114 26.0533 146.647 27.52 147.554 28.4C148.461 29.28 149.661 29.72 151.154 29.72C152.087 29.72 152.967 29.5733 153.794 29.28C154.621 28.96 155.501 28.48 156.434 27.84L158.554 30.76C156.207 32.6533 153.594 33.6 150.714 33.6C147.487 33.6 144.994 32.6133 143.234 30.64C141.501 28.6667 140.634 25.9733 140.634 22.56C140.634 20.4 141.007 18.4667 141.754 16.76C142.501 15.0267 143.581 13.68 144.994 12.72C146.407 11.7333 148.087 11.24 150.034 11.24C152.994 11.24 155.287 12.1867 156.914 14.08C158.541 15.9467 159.354 18.56 159.354 21.92ZM154.274 20.44C154.274 16.7333 152.901 14.88 150.154 14.88C148.901 14.88 147.914 15.3467 147.194 16.28C146.501 17.1867 146.087 18.6533 145.954 20.68H154.274V20.44ZM153.194 0.199997L155.274 4.2L146.234 7.8L144.794 5.2L153.194 0.199997Z" fill="#F5F5F5"/>
<path d="M170.627 11.24C173.481 11.24 175.987 12.08 178.147 13.76L176.147 16.76C174.334 15.6133 172.561 15.04 170.827 15.04C169.814 15.04 169.027 15.24 168.467 15.64C167.907 16.0133 167.627 16.52 167.627 17.16C167.627 17.64 167.747 18.04 167.987 18.36C168.227 18.68 168.654 18.9867 169.267 19.28C169.907 19.5467 170.841 19.8533 172.067 20.2C174.361 20.8133 176.054 21.6267 177.147 22.64C178.267 23.6533 178.827 25.0667 178.827 26.88C178.827 28.9867 177.974 30.64 176.267 31.84C174.561 33.0133 172.441 33.6 169.907 33.6C168.174 33.6 166.587 33.3333 165.147 32.8C163.734 32.2667 162.507 31.5333 161.467 30.6L164.027 27.72C165.867 29.1067 167.787 29.8 169.787 29.8C170.934 29.8 171.84 29.5733 172.507 29.12C173.201 28.6667 173.547 28.04 173.547 27.24C173.547 26.6267 173.414 26.1467 173.147 25.8C172.907 25.4267 172.454 25.1067 171.787 24.84C171.147 24.5467 170.134 24.2 168.747 23.8C166.587 23.2133 165.001 22.4 163.987 21.36C162.974 20.2933 162.467 18.9733 162.467 17.4C162.467 16.2267 162.801 15.1733 163.467 14.24C164.161 13.3067 165.121 12.5733 166.347 12.04C167.601 11.5067 169.027 11.24 170.627 11.24Z" fill="#F5F5F5"/>
<path d="M198.22 27.4C198.22 28.2267 198.34 28.84 198.58 29.24C198.847 29.6133 199.26 29.9067 199.82 30.12L198.74 33.52C197.54 33.4133 196.553 33.12 195.78 32.64C195.033 32.16 194.46 31.4267 194.06 30.44C193.34 31.5067 192.433 32.3067 191.34 32.84C190.273 33.3467 189.073 33.6 187.74 33.6C185.633 33.6 183.967 33 182.74 31.8C181.513 30.6 180.9 29.0267 180.9 27.08C180.9 24.7867 181.727 23.04 183.38 21.84C185.06 20.6133 187.447 20 190.54 20H193.18V18.8C193.18 17.44 192.86 16.4933 192.22 15.96C191.607 15.4 190.607 15.12 189.22 15.12C187.673 15.12 185.807 15.4933 183.62 16.24L182.42 12.76C185.06 11.7467 187.62 11.24 190.1 11.24C195.513 11.24 198.22 13.6667 198.22 18.52V27.4ZM189.1 29.88C190.833 29.88 192.193 29.0133 193.18 27.28V23H191.06C187.753 23 186.1 24.2267 186.1 26.68C186.1 27.6933 186.353 28.48 186.86 29.04C187.367 29.6 188.113 29.88 189.1 29.88Z" fill="#F5F5F5"/>
<path d="M214.856 11.28C215.629 11.28 216.336 11.3733 216.976 11.56L216.096 16.52C215.456 16.36 214.829 16.28 214.216 16.28C212.963 16.28 211.976 16.7333 211.256 17.64C210.536 18.52 209.963 19.88 209.536 21.72V33H204.416V11.84H208.856L209.336 16C209.843 14.48 210.576 13.32 211.536 12.52C212.496 11.6933 213.603 11.28 214.856 11.28Z" fill="#F5F5F5"/>
</svg>
